<svg clip-rule="evenodd" fill-rule="evenodd" stroke-linejoin="round" stroke-miterlimit="2" viewBox="0 0 560 400" xmlns="http://www.w3.org/2000/svg"><g transform="matrix(.985491 0 0 .985491 33.5779 -46.3983)"><path d="m150.8 250.7c0 23-18.7 41.7-41.7 41.7s-41.7-18.7-41.7-41.7 18.7-41.7 41.7-41.7 41.7 18.7 41.7 41.7z" fill="#1e6d21" fill-rule="nonzero"/><ellipse cx="100.4" cy="223.5" fill="#fff" rx="7.2" ry="7.1"/><ellipse cx="86" cy="230" fill="#fff" rx="5.5" ry="6"/><ellipse cx="77.3" cy="241.3" fill="#fff" rx="4" ry="4.3"/><ellipse cx="75.1" cy="250.8" fill="#fff" rx="3.2" ry="3.5"/><ellipse cx="75.2" cy="258.5" fill="#fff" rx="2.4" ry="2.6"/><g fill-rule="nonzero"><path d="m99.7 234c-11.5.4-18.9 7.4-20.5 21.5 1.4 13.1 6.6 12.5 10.7 12.6 7.5.3 13.5-5.4 13.1-9.4.1-2.8-2.4-9.3-1.9-14.8-.1-3.5 3.4-7.1-1.4-9.9z" fill="#fff"/><path d="m106.9 259.1c-1.8 4.3-5 10-8.7 10.7-1.4.9-2.2 2.1-2.5 3.2-1.4 6.2.3 8.7 4.6 10.8 4.7 1.3 15.7-7.1 16-12.3.4-3.7 0-7.4-2.9-11.4-1.3-2.2-5.1-3.5-6.8-.9" fill="#fff"/><path d="m115.6 236c3.8.5 11.1-3.6 9.7 6.8l-.8 40.3 35.1-49.8c6.2-14 16.1-13.4 24.6-17.4 7.1-3.8 8.8-13 10.2-22.5-4.2 5.4-3.9 13.2-12.3 15.3-23.6 3.4-29.2 17.7-35.1 26.6l-11.5 16.9-1.8-17.2c-2.5-8.4-12.8-4.9-18.1 1z" fill="#f4aa00"/><path d="m107.5 302.5c5.5.5 11 .9 12.8-3.6l36.4-55.9c4-6.4 10-17.3 13.8-18.5.1-.3 3.2-1.9 5.4-2.5.1 0 5.1-1.6 5.1-1.6.1.1 7.2-2.8 12.3-9-.9 7-1.6 11.3-11.8 16.3l-6.3 4.2c-16 12.6-29.5 43.8-44.8 64.9l-7.7 8.7c-11.1 3.1-11.9-.8-15.2-3z" fill="#f4aa00"/><path d="m200.3 250.3h11.9v.9h-.6c-.4 0-1.1.2-1.9.6s-1.6.9-2.3 1.7-1.5 1.9-2.5 3.6c-2.7 4.5-5.5 8.8-8.2 13.3v8.8c0 2.1.2 3.5.7 4 .6.7 1.6 1.1 3 1.1h1.1v1h-14.4v-1h1.2c1.4 0 2.5-.4 3.1-1.3.4-.5.6-1.8.6-3.8v-8.3c-3.1-4.9-6.3-9.7-9.3-14.6-1.1-1.7-1.9-2.8-2.2-3.2-.4-.4-1.2-.9-2.5-1.5-.3-.2-.8-.3-1.4-.3v-.9h14.5v.9h-.7c-.8 0-1.5.2-2.2.6s-1 1-1 1.7c0 .6.5 1.7 1.5 3.4 2.3 3.8 4.8 7.5 7.1 11.3 2.2-3.6 4.5-7.2 6.7-10.8 1-1.6 1.5-2.8 1.5-3.6 0-.5-.1-.9-.3-1.3s-.6-.7-1.1-.9c-.4-.2-1.1-.3-2-.3-.3-.5-.3-.8-.3-1.1" fill="#1e6d21"/><path d="m213.2 270.5c0 3.5.8 6.2 2.5 8.3 1.7 2 3.6 3 5.9 3 1.5 0 2.8-.4 3.9-1.3s2-2.3 2.8-4.4c.3.2.5.3.8.5-.3 2.4-1.4 4.5-3.1 6.4-1.7 2-3.8 2.9-6.3 2.9-2.8 0-5.1-1.1-7.1-3.3s-3-5.2-3-8.9c0-4 1-7.2 3-9.5s4.5-3.4 7.6-3.4c2.6 0 4.7.9 6.3 2.6 1.6 1.8 2.5 4.1 2.5 7-5.2.1-10.5.1-15.8.1zm0-1.5h10.6c-.1-1.5-.3-2.6-.5-3.2-.4-1-1-1.7-1.9-2.3-.8-.5-1.7-.8-2.6-.8-1.4 0-2.6.5-3.7 1.7-1 1.1-1.7 2.6-1.9 4.6z" fill="#1e6d21"/><path d="m238.8 253.9v7.8h5.4v1.8h-5.4v15.3c0 1.5.2 2.6.6 3.1s1 .8 1.6.8c.5 0 1.1-.2 1.6-.5s.9-.8 1.2-1.6h1c-.6 1.7-1.4 2.9-2.5 3.8s-2.2 1.3-3.3 1.3c-.8 0-1.5-.2-2.3-.7-.7-.4-1.3-1.1-1.6-1.9s-.5-2.1-.5-3.8v-15.9h-3.6v-.8c.9-.4 1.9-1 2.8-1.9s1.8-2 2.6-3.2c.4-.6.9-1.9 1.6-3.6z" fill="#1e6d21"/><path d="m252.2 248.6c.7 0 1.3.2 1.8.7s.7 1.1.7 1.9c0 .7-.3 1.3-.7 1.9-.5.5-1.1.8-1.8.8s-1.3-.2-1.8-.8c-.5-.5-.7-1.1-.7-1.9 0-.7.2-1.3.7-1.9.5-.5 1.1-.7 1.8-.7zm2.1 12.3v19c0 1.5.1 2.5.3 2.9.2.5.5.9.9 1.1s1.2.4 2.2.4v.9h-11.2v-.9c1.1 0 1.9-.1 2.3-.3s.7-.6.9-1.1.3-1.5.3-3v-9.1c0-2.6-.1-4.2-.2-5-.1-.5-.3-.9-.5-1.2-.2-.2-.6-.3-1-.3-.5 0-1 .1-1.7.4-.1-.3-.2-.6-.3-.9 2.3-1 4.6-1.9 6.9-2.9z" fill="#1e6d21"/><path d="m292.5 273.5h-13.2c-.8 1.8-1.5 3.7-2.3 5.5-.6 1.4-.8 2.4-.8 3 0 .5.2 1 .7 1.4s1.6.7 3.2.8v1h-10.7v-1c1.4-.3 2.3-.6 2.8-1 .8-.8 1.8-2.5 2.8-5 3.9-9.6 8-19.2 11.9-28.8h.9c3.9 9.7 8 19.4 11.8 29.1.9 2.4 1.8 3.8 2.6 4.5s1.9 1.1 3.2 1.2v1h-13.4v-1c1.4-.1 2.3-.3 2.8-.7s.7-.9.7-1.4c0-.7-.3-2-1-3.6-.6-1.6-1.3-3.3-2-5zm-.7-1.9c-1.9-4.7-3.9-9.4-5.8-14.1-1.9 4.7-4 9.4-5.9 14.1z" fill="#1e6d21"/><path d="m313.5 248.6c.7 0 1.3.2 1.8.7s.7 1.1.7 1.9c0 .7-.3 1.3-.7 1.9-.5.5-1.1.8-1.8.8s-1.3-.2-1.8-.8c-.5-.5-.7-1.1-.7-1.9 0-.7.2-1.3.7-1.9.5-.5 1.1-.7 1.8-.7zm2.1 12.3v19c0 1.5.1 2.5.3 2.9.2.5.5.9.9 1.1s1.2.4 2.2.4v.9h-11.1v-.9c1.1 0 1.9-.1 2.3-.3s.7-.6.9-1.1.3-1.5.3-3v-9.1c0-2.6-.1-4.2-.2-5-.1-.5-.3-.9-.6-1.2-.2-.2-.6-.3-1-.3-.5 0-1 .1-1.7.4-.1-.3-.2-.6-.3-.9 2.3-1 4.6-1.9 6.9-2.9z" fill="#1e6d21"/><path d="m328.7 260.9v5.3c1.9-3.5 3.9-5.3 5.9-5.3.9 0 1.7.3 2.3.9s.9 1.3.9 2-.2 1.2-.6 1.7-.9.7-1.5.7-1.2-.3-2-.9c-.7-.6-1.3-.9-1.6-.9s-.6.2-1 .5c-.7.7-1.5 1.9-2.3 3.5v11.3c0 1.3.1 2.3.5 3 .2.5.6.8 1.1 1.2.5.3 1.4.5 2.4.5v.9h-11.7v-.9c1.2 0 2-.2 2.6-.6.4-.3.7-.7.9-1.3.1-.3.1-1.1.1-2.5v-9.1c0-2.8-.1-4.4-.1-4.9-.1-.5-.3-.9-.6-1.1s-.7-.4-1.1-.4c-.5 0-1.1.1-1.8.4-.1-.3-.2-.6-.2-.9 2.3-1 4.6-1.9 6.9-2.9.1-.2.5-.2.9-.2" fill="#1e6d21"/><path d="m346.9 248.6v31.3c0 1.5.1 2.5.3 2.9.2.5.5.8.9 1.1s1.3.4 2.4.4v.9h-11.3v-.9c1.1 0 1.8-.1 2.2-.3s.7-.6.9-1.1.3-1.5.3-3v-21.4c0-2.7 0-4.3-.2-4.9-.1-.6-.3-1-.5-1.2-.3-.2-.6-.3-1-.3s-1 .1-1.7.4c-.1-.3-.3-.6-.4-.9 2.3-1 4.6-1.9 6.8-2.9.6-.1.9-.1 1.3-.1" fill="#1e6d21"/><path d="m359.1 248.6c.7 0 1.3.2 1.8.7s.7 1.1.7 1.9c0 .7-.2 1.3-.7 1.9-.5.5-1.1.8-1.8.8s-1.3-.2-1.8-.8c-.5-.5-.8-1.1-.8-1.9 0-.7.3-1.3.8-1.9.5-.5 1.1-.7 1.8-.7zm2.1 12.3v19c0 1.5.1 2.5.3 2.9.2.5.5.9.9 1.1s1.1.4 2.2.4v.9h-11.1v-.9c1.1 0 1.9-.1 2.3-.3s.7-.6.9-1.1.3-1.5.3-3v-9.1c0-2.6-.1-4.2-.2-5-.1-.5-.3-.9-.5-1.2-.2-.2-.6-.3-1-.3-.5 0-1 .1-1.7.4-.1-.3-.2-.6-.3-.9 2.3-1 4.6-1.9 6.9-2.9z" fill="#1e6d21"/><path d="m374.2 265.9c2.6-3.3 5.3-5 7.7-5 1.2 0 2.3.3 3.2 1s1.6 1.7 2.2 3.2c.4 1 .6 2.6.6 4.7v10.1c0 1.5.1 2.5.3 3 .2.4.5.8.9 1s1.2.4 2.3.4v.9h-11.3v-.9h.5c1.1 0 1.8-.2 2.3-.5.4-.3.7-.8.9-1.5.1-.3.1-1.1.1-2.4v-9.7c0-2.1-.3-3.7-.8-4.7s-1.5-1.4-2.8-1.4c-2 0-4 1.1-5.9 3.3v12.4c0 1.6.1 2.6.3 3 .2.5.6.8 1 1.1.4.2 1.2.4 2.5.4v.9h-11.3v-.9h.5c1.2 0 2-.3 2.4-.9s.6-1.8.6-3.5v-8.8c0-2.8 0-4.6-.2-5.2-.1-.6-.3-1-.6-1.3-.3-.2-.6-.3-1.1-.3s-1 .1-1.7.4c-.1-.3-.3-.6-.4-.9 2.3-1 4.6-1.9 6.9-2.9h1.1c-.2 1.7-.2 3.4-.2 5" fill="#1e6d21"/><path d="m397 270.5c0 3.5.8 6.2 2.5 8.3 1.7 2 3.6 3 5.9 3 1.5 0 2.8-.4 3.9-1.3s2-2.3 2.8-4.4c.3.2.5.3.8.5-.3 2.4-1.4 4.5-3.1 6.4-1.7 2-3.8 2.9-6.3 2.9-2.8 0-5.1-1.1-7.1-3.3s-3-5.2-3-8.9c0-4 1-7.2 3-9.5s4.5-3.4 7.6-3.4c2.6 0 4.7.9 6.3 2.6 1.6 1.8 2.5 4.1 2.5 7-5.2.1-10.5.1-15.8.1zm0-1.5h10.6c-.1-1.5-.2-2.6-.5-3.2-.4-1-1-1.7-1.9-2.3-.8-.5-1.7-.8-2.6-.8-1.4 0-2.6.5-3.7 1.7-1 1.1-1.7 2.6-1.9 4.6z" fill="#1e6d21"/><path d="m430.8 260.9v8h-.8c-.6-2.5-1.5-4.2-2.4-5.2-1-.9-2.3-1.4-3.8-1.4-1.2 0-2.1.3-2.8.9-.7.7-1.1 1.3-1.1 2.1 0 1 .3 1.8.8 2.5s1.6 1.4 3.2 2.2c1.2.6 2.4 1.2 3.7 1.8 3.4 1.7 5.1 3.9 5.1 6.7 0 2.1-.8 3.9-2.4 5.2s-3.4 2-5.3 2c-1.4 0-3-.2-4.8-.8-.5-.2-1-.3-1.4-.3s-.7.2-.9.7h-.8v-8.4h.8c.5 2.4 1.4 4.2 2.7 5.4s2.8 1.8 4.4 1.8c1.2 0 2.1-.4 2.8-1.1s1.1-1.5 1.1-2.5c0-1.2-.4-2.2-1.2-3s-2.4-1.8-4.9-3.1c-2.4-1.3-4-2.3-4.8-3.3-.7-1-1.1-2.2-1.1-3.7 0-1.9.7-3.5 2-4.9 1.3-1.3 3-2 5-2 .9 0 2 .2 3.3.6.9.3 1.4.4 1.7.4s.5 0 .6-.2c.1-.1.3-.4.5-.8.2.4.5.4.8.4" fill="#1e6d21"/></g></g></svg>